<mxfile host="app.diagrams.net" modified="2023-10-18T10:30:03.296Z" agent="Mozilla/5.0 (Macintosh; Intel Mac OS X 10_15_7) AppleWebKit/605.1.15 (KHTML, like Gecko) Version/16.0 Safari/605.1.15" version="22.0.4" etag="rpo2WTfaSWXBf0FFFY64" type="github">
  <diagram name="Page-1" id="k5lDUI6TXCVM2oPatagf">
    <mxGraphModel>
      <root>
        <mxCell id="0" />
        <mxCell id="1" parent="0" />
      </root>
    </mxGraphModel>
  </diagram>
</mxfile>
